<mxfile host="app.diagrams.net" modified="2024-01-11T20:35:21.183Z" agent="Mozilla/5.0 (Macintosh; Intel Mac OS X 10_15_7) AppleWebKit/537.36 (KHTML, like Gecko) Chrome/120.0.0.0 Safari/537.36 Edg/120.0.0.0" etag="GRhkAIy8Yiglzcz7I23T" version="22.1.18" type="device">
  <diagram name="Page-1" id="CF4Dk-R-EUya1Li2GJQD">
    <mxGraphModel dx="1259" dy="737" grid="1" gridSize="10" guides="1" tooltips="1" connect="1" arrows="1" fold="1" page="1" pageScale="1" pageWidth="850" pageHeight="1100" math="0" shadow="0">
      <root>
        <mxCell id="0" />
        <mxCell id="1" parent="0" />
        <mxCell id="4_4O2VWyavBIPWRtbcBU-1" value="User" style="shape=umlActor;verticalLabelPosition=bottom;verticalAlign=top;html=1;outlineConnect=0;" vertex="1" parent="1">
          <mxGeometry x="120" y="350" width="30" height="60" as="geometry" />
        </mxCell>
        <mxCell id="4_4O2VWyavBIPWRtbcBU-3" value="" style="rounded=1;whiteSpace=wrap;html=1;strokeWidth=2;" vertex="1" parent="1">
          <mxGeometry x="330" y="120" width="710" height="430" as="geometry" />
        </mxCell>
        <mxCell id="4_4O2VWyavBIPWRtbcBU-4" style="edgeStyle=orthogonalEdgeStyle;rounded=0;orthogonalLoop=1;jettySize=auto;html=1;exitX=0.5;exitY=0.5;exitDx=0;exitDy=0;exitPerimeter=0;entryX=0;entryY=0.5;entryDx=0;entryDy=0;strokeWidth=2;dashed=1;" edge="1" parent="1" source="4_4O2VWyavBIPWRtbcBU-1" target="4_4O2VWyavBIPWRtbcBU-5">
          <mxGeometry relative="1" as="geometry" />
        </mxCell>
        <mxCell id="4_4O2VWyavBIPWRtbcBU-11" style="edgeStyle=orthogonalEdgeStyle;rounded=0;orthogonalLoop=1;jettySize=auto;html=1;exitX=1;exitY=0.5;exitDx=0;exitDy=0;startArrow=classic;startFill=1;strokeWidth=2;" edge="1" parent="1" source="4_4O2VWyavBIPWRtbcBU-5" target="4_4O2VWyavBIPWRtbcBU-7">
          <mxGeometry relative="1" as="geometry" />
        </mxCell>
        <mxCell id="4_4O2VWyavBIPWRtbcBU-12" value="HTTPs" style="edgeLabel;html=1;align=center;verticalAlign=middle;resizable=0;points=[];" vertex="1" connectable="0" parent="4_4O2VWyavBIPWRtbcBU-11">
          <mxGeometry x="-0.1569" relative="1" as="geometry">
            <mxPoint x="14" as="offset" />
          </mxGeometry>
        </mxCell>
        <mxCell id="4_4O2VWyavBIPWRtbcBU-5" value="&lt;font style=&quot;font-size: 24px;&quot;&gt;Frontend&lt;/font&gt;" style="rounded=1;whiteSpace=wrap;html=1;fillColor=#dae8fc;strokeColor=#6c8ebf;strokeWidth=2;" vertex="1" parent="1">
          <mxGeometry x="380" y="307.5" width="240" height="145" as="geometry" />
        </mxCell>
        <mxCell id="4_4O2VWyavBIPWRtbcBU-6" value="Next.js (React)" style="text;html=1;strokeColor=none;fillColor=none;align=center;verticalAlign=middle;whiteSpace=wrap;rounded=0;" vertex="1" parent="1">
          <mxGeometry x="460" y="452.5" width="80" height="27.5" as="geometry" />
        </mxCell>
        <mxCell id="4_4O2VWyavBIPWRtbcBU-7" value="&lt;font style=&quot;font-size: 24px;&quot;&gt;Backend&lt;/font&gt;" style="rounded=1;whiteSpace=wrap;html=1;fillColor=#fff2cc;strokeColor=#d6b656;strokeWidth=2;" vertex="1" parent="1">
          <mxGeometry x="730" y="307.5" width="240" height="145" as="geometry" />
        </mxCell>
        <mxCell id="4_4O2VWyavBIPWRtbcBU-8" value="Node.js&lt;br&gt;(RESTful API)" style="text;html=1;strokeColor=none;fillColor=none;align=center;verticalAlign=middle;whiteSpace=wrap;rounded=0;" vertex="1" parent="1">
          <mxGeometry x="810" y="452.5" width="80" height="27.5" as="geometry" />
        </mxCell>
        <mxCell id="4_4O2VWyavBIPWRtbcBU-9" value="Database" style="shape=cylinder3;whiteSpace=wrap;html=1;boundedLbl=1;backgroundOutline=1;size=15;fillColor=#e1d5e7;strokeColor=#9673a6;strokeWidth=2;" vertex="1" parent="1">
          <mxGeometry x="820" y="150" width="60" height="80" as="geometry" />
        </mxCell>
        <mxCell id="4_4O2VWyavBIPWRtbcBU-10" style="edgeStyle=orthogonalEdgeStyle;rounded=0;orthogonalLoop=1;jettySize=auto;html=1;exitX=0.5;exitY=0;exitDx=0;exitDy=0;entryX=0.5;entryY=1;entryDx=0;entryDy=0;entryPerimeter=0;strokeWidth=2;" edge="1" parent="1" source="4_4O2VWyavBIPWRtbcBU-7" target="4_4O2VWyavBIPWRtbcBU-9">
          <mxGeometry relative="1" as="geometry" />
        </mxCell>
        <mxCell id="4_4O2VWyavBIPWRtbcBU-13" value="&lt;font style=&quot;font-size: 25px;&quot;&gt;&lt;b&gt;Diagrama de arquitectura&lt;/b&gt;&lt;/font&gt;" style="text;html=1;strokeColor=none;fillColor=none;align=center;verticalAlign=middle;whiteSpace=wrap;rounded=0;" vertex="1" parent="1">
          <mxGeometry x="487.5" y="70" width="380" height="30" as="geometry" />
        </mxCell>
        <mxCell id="4_4O2VWyavBIPWRtbcBU-15" value="Google Cloud" style="text;html=1;strokeColor=none;fillColor=none;align=center;verticalAlign=middle;whiteSpace=wrap;rounded=0;" vertex="1" parent="1">
          <mxGeometry x="600" y="520" width="155" height="30" as="geometry" />
        </mxCell>
        <mxCell id="4_4O2VWyavBIPWRtbcBU-16" value="PostgreSQL" style="text;html=1;strokeColor=none;fillColor=none;align=center;verticalAlign=middle;whiteSpace=wrap;rounded=0;" vertex="1" parent="1">
          <mxGeometry x="880" y="175" width="100" height="30" as="geometry" />
        </mxCell>
        <mxCell id="4_4O2VWyavBIPWRtbcBU-17" value="https://mrdoctor.com" style="text;html=1;strokeColor=none;fillColor=none;align=center;verticalAlign=middle;whiteSpace=wrap;rounded=0;" vertex="1" parent="1">
          <mxGeometry x="160" y="350" width="155" height="30" as="geometry" />
        </mxCell>
      </root>
    </mxGraphModel>
  </diagram>
</mxfile>
